# xmcd
#
# Track frame offsets:
#	150
#	8439
#	38560
#	70616
#	105002
#	132266
#	164234
#	192498
#	225231
#	258085
#
# Disc length: 3792 seconds
#
# Revision: 1
# Processed by: cddbd v1.5.2PL0 Copyright (c) Steve Scherf et al.
# Submitted via: audiograbber 1.83.01
#
DISCID=6d0ece0a
DTITLE=Grateful Dead - 93-03-27 Knickerbocker Arena, Albany NY
DYEAR=1900
DGENRE=
TTITLE0=Tuning
TTITLE1=Hell In A Bucket
TTITLE2=Bertha
TTITLE3=The Same Thing
TTITLE4=Peggy-O
TTITLE5=Queen Jane Approximately
TTITLE6=Broken Arrow
TTITLE7=Loose Lucy
TTITLE8=Cassidy
TTITLE9=Casey Jones
EXTD=
EXTT0=
EXTT1=
EXTT2=
EXTT3=
EXTT4=
EXTT5=
EXTT6=
EXTT7=
EXTT8=
EXTT9=
PLAYORDER=
